# xmcd CD database file
# Copyright (C) 1997 Ti Kan
# 
# Track frame offsets:
#     150
#     12255
#     37510
#     59633
#     71198
#     97978
#     112281
#     129016
#     150468
#     172251
#     194064
#     216024
#     223146
#     235271
#     260169
#     287084
# 
# Disc length: 4210 seconds
# 
# Revision: 1
# Processed by: cddbd v1.4b41PL1 Copyright (c) Steve Scherf et al.
# Submitted via: DiscPlay 4.0.4
# 
DISCID=f5107010
DTITLE=Harry Connick, Jr. - My Compilation
DYEAR=1900
DGENRE=
TTITLE0=It Had To Be You
TTITLE1=She
TTITLE2=How Do Ya'll Know
TTITLE3=Recipe For Love
TTITLE4=Between Us
TTITLE5=You Didn't Know Me When
TTITLE6=Nobody Like You To Me
TTITLE7=Hear Me In The Harmony
TTITLE8=(I Could Only) Whisper Your Name
TTITLE9=Reason To Believe
TTITLE10=It's Alright With Me
TTITLE11=She... Blessed To Be The One
TTITLE12=We Are In Love
TTITLE13=Honestly Now (Safety's Just Danger Out Of Place)
TTITLE14=City Beneath The Sea
TTITLE15=Funky Dunky
EXTD=
EXTT0=
EXTT1=
EXTT2=
EXTT3=
EXTT4=
EXTT5=
EXTT6=
EXTT7=
EXTT8=
EXTT9=
EXTT10=
EXTT11=
EXTT12=
EXTT13=
EXTT14=
EXTT15=
PLAYORDER=
